<svg xmlns="http://www.w3.org/2000/svg" width="64.3" height="72.8" viewBox="0 0 64.3 72.8">
  <path id="_01_icon_pc" data-name="01_icon_pc" d="M20.1-72a17.742,17.742,0,0,1,6.25,1.1,14.634,14.634,0,0,1,5.05,3.1,14.477,14.477,0,0,1,3.3,4.75A17.751,17.751,0,0,1,35.9-56v40.8a17.751,17.751,0,0,1-1.2,7.05A14.477,14.477,0,0,1,31.4-3.4,14.634,14.634,0,0,1,26.35-.3,17.742,17.742,0,0,1,20.1.8,18.155,18.155,0,0,1,13.8-.3,14.549,14.549,0,0,1,8.7-3.4,14.477,14.477,0,0,1,5.4-8.15,17.751,17.751,0,0,1,4.2-15.2V-56a17.751,17.751,0,0,1,1.2-7.05A14.477,14.477,0,0,1,8.7-67.8a14.549,14.549,0,0,1,5.1-3.1A18.155,18.155,0,0,1,20.1-72Zm0,9.5A5.2,5.2,0,0,0,16.35-61a6.138,6.138,0,0,0-1.55,4.6v41.6a6.138,6.138,0,0,0,1.55,4.6A5.2,5.2,0,0,0,20.1-8.7a5.027,5.027,0,0,0,3.7-1.5,6.263,6.263,0,0,0,1.5-4.6V-56.4A6.263,6.263,0,0,0,23.8-61,5.027,5.027,0,0,0,20.1-62.5ZM68.5,0H57.9V-58.8L47.2-50.6v-12l10.7-8.6H68.5Z" transform="translate(-4.2 72)" fill="#df001f"/>
</svg>
