<svg xmlns="http://www.w3.org/2000/svg" xmlns:xlink="http://www.w3.org/1999/xlink" id="e4pnx007qm7v1"
    viewBox="0 0 200 200" shape-rendering="geometricPrecision" text-rendering="geometricPrecision">
    <g id="e4pnx007qm7v2" transform="matrix(1 0 0 1 40.16300000000003 40.18400000000001)">
        <rect id="e4pnx007qm7v3" width="200" height="200" rx="0" ry="0"
            transform="matrix(1 0 0 1 -40.16300000000002 -40.18399999999999)" fill="rgba(255,255,255,0)"
            stroke="none" stroke-width="1" />
        <path id="e4pnx007qm7v4"
            d="M828.741000,398.221000L821.528000,405.434000L821.528000,385.534000L815.973000,385.534000L815.973000,405.434000L808.843000,398.221000L804.863000,402.201000L818.791000,416.047000L832.638000,402.200000Z"
            transform="matrix(1 0 0 1 -713.22600000000000 -342.50383866524123)" fill="rgb(223,0,31)"
            stroke="none" stroke-width="4" stroke-linecap="round" stroke-miterlimit="10" />
        <path id="e4pnx007qm7v5"
            d="M109.586000,262.156000L54.331000,262.091000L53.824000,262.091000C53.444000,262.091000,52.937000,262.156000,52.810000,262.156000C46.092271,262.139996,39.703011,259.247866,35.258000,254.211000C30.622532,249.003314,28.091533,242.256595,28.158000,235.285000C28.158000,220.493000,39.310000,208.479000,53.124000,208.414000C55.912000,194.526000,67.572000,184.320000,81.005000,184.320000C88.322202,184.355603,95.323315,187.306774,100.458000,192.520000C104.938923,197.040785,107.962594,202.800423,109.139000,209.056000C110.886137,208.664567,112.671559,208.469690,114.462000,208.475000C118.629329,208.475912,122.720619,209.591091,126.312000,211.705000C127.604407,212.476267,128.052901,214.133129,127.326000,215.451000C126.978985,216.078795,126.395029,216.541491,125.704521,216.735773C125.014013,216.930054,124.274462,216.839742,123.651000,216.485000C120.859696,214.860153,117.692680,213.991878,114.463000,213.966000C112.208465,213.954128,109.972183,214.370504,107.873000,215.193000L104.515000,216.485000L104.198000,212.868000C103.121000,199.755000,93.109000,189.868000,81.006000,189.868000C69.473000,189.868000,59.588000,199.234000,57.941000,211.701000L57.624000,214.285000L54.963000,214.027000C54.329000,213.962000,53.632000,213.898000,52.999000,213.898000C42.227000,213.898000,33.419000,223.458000,33.419000,235.279000C33.419000,246.579000,41.340000,255.820000,51.288000,256.660000L54.646000,256.660000L109.521000,256.725000C110.281000,256.725000,111.042000,256.725000,111.802000,256.660000C112.626000,256.660000,113.450000,256.595000,114.337000,256.595000C123.588000,256.595000,131.637000,249.425000,133.474000,239.607000C133.761196,238.137551,135.164792,237.162832,136.642000,237.407000C138.105742,237.738035,139.052985,239.158459,138.796000,240.637000C136.388000,253.037000,126.123000,262.082000,114.337000,262.082000C113.450000,262.082000,112.689000,262.082000,111.866000,262.147000Z"
            transform="matrix(1 0 0 1 -28.16100000000000 -164.61673546609649)" fill="rgb(223,0,31)"
            stroke="none" stroke-width="1" />
        <path id="e4pnx007qm7v6"
            d="M326.654000,497.579000C326.636702,498.593328,326.468181,499.599401,326.154000,500.564000C325.784929,501.701140,325.224187,502.766821,324.496000,503.715000C323.743521,504.798052,322.712098,505.657398,321.511000,506.202000C320.213272,506.898604,318.755193,507.241742,317.283000,507.197000C316.164700,507.197256,315.050746,507.057843,313.967000,506.782000C313.014263,506.492186,312.117316,506.043544,311.314000,505.455000C310.426362,504.799569,309.667315,503.985942,309.075000,503.055000C308.435407,502.095338,307.907013,501.066060,307.500000,499.987000C307.070613,498.799786,306.737864,497.579816,306.505000,496.339000C306.267732,494.998338,306.156580,493.638397,306.173000,492.277000C306.135368,490.147508,306.414759,488.024266,307.002000,485.977000C307.469581,484.268967,308.257194,482.665237,309.323000,481.251000C310.233238,479.996447,311.426094,478.973853,312.805000,478.266000C317.371182,475.975708,322.931093,477.696632,325.405000,482.166000C326.108068,483.350202,326.506940,484.690082,326.566000,486.066000C326.578192,486.721192,326.374370,487.362180,325.986000,487.890000C325.698790,488.347606,325.199218,488.628450,324.659000,488.636000C324.163585,488.680258,323.675029,488.496175,323.332000,488.136000C322.926786,487.571106,322.592609,486.958504,322.337000,486.312000C321.867925,485.087294,321.131342,483.982762,320.181000,483.079000C319.361290,482.349781,318.292495,481.963797,317.196000,482.001000C315.289351,482.008032,313.539452,483.057972,312.636000,484.737000C311.475000,486.561000,310.978000,489.214000,310.978000,492.613000C310.929822,494.519807,311.181558,496.422342,311.724000,498.251000C312.088190,499.550109,312.840399,500.707030,313.880000,501.567000C315.859621,503.063862,318.610733,502.995012,320.513000,501.401000C321.528489,500.367535,322.244886,499.078158,322.586000,497.670000C322.718102,496.994684,322.970806,496.348697,323.332000,495.763000C323.625740,495.270972,324.168948,494.983368,324.741000,495.017000C325.303916,495.022210,325.829272,495.300361,326.150000,495.763000C326.499215,496.302793,326.675073,496.936440,326.654000,497.579000ZM340.914000,477.179000C343.102317,477.108508,345.254642,477.748417,347.049000,479.003000C348.803372,480.353412,350.152568,482.160297,350.949000,484.226000C351.900034,486.768713,352.350632,489.471279,352.276000,492.185000C352.298845,494.253943,352.048004,496.316823,351.530000,498.320000C351.101698,500.037996,350.371697,501.666278,349.374000,503.129000C348.466136,504.407114,347.274251,505.457287,345.892000,506.197000C344.403646,506.950815,342.750720,507.321340,341.083000,507.275000C339.419447,507.280803,337.775890,506.912379,336.274000,506.197000C334.869197,505.456720,333.650358,504.407801,332.709000,503.129000C331.729456,501.656193,331.000908,500.031153,330.553000,498.320000C330.040141,496.315853,329.789383,494.253652,329.807000,492.185000C329.784178,490.116058,330.035019,488.053181,330.553000,486.050000C330.975764,484.340783,331.737119,482.733744,332.792000,481.324000C333.702238,480.069447,334.895094,479.046853,336.274000,478.339000C337.695575,477.557890,339.295086,477.157926,340.917000,477.178000ZM347.464000,492.185000C347.517368,490.298938,347.236711,488.418302,346.635000,486.630000C346.192769,485.256104,345.391468,484.025324,344.314000,483.065000C343.341487,482.243723,342.104758,481.801882,340.832000,481.821000C339.934800,481.834490,339.053757,482.061778,338.262000,482.484000C337.446338,482.938808,336.761125,483.595442,336.272000,484.391000C335.638329,485.379828,335.188757,486.475130,334.945000,487.624000C334.601116,489.063033,334.433221,490.538495,334.445000,492.018000C334.428591,493.525133,334.596503,495.028620,334.945000,496.495000C335.230946,497.669690,335.706881,498.789775,336.354000,499.811000C336.893286,500.616166,337.600482,501.295046,338.427000,501.801000C339.214933,502.232961,340.098435,502.460884,340.997000,502.464000C342.198753,502.445511,343.362173,502.038174,344.313000,501.303000C345.407222,500.375334,346.235450,499.173712,346.713000,497.821000C347.268458,495.997454,347.522135,494.095381,347.464000,492.190000ZM357.827000,504.041000L362.636000,504.041000C363.037643,504.021966,363.428804,504.172552,363.714000,504.456000C363.982206,504.717214,364.132110,505.076624,364.129000,505.451000C364.146671,505.812516,364.028215,506.167529,363.797000,506.446000C363.580556,506.726918,363.238988,506.882347,362.885000,506.861000L356.085000,506.861000C355.663723,506.890095,355.256897,506.701400,355.007000,506.361000C354.736306,506.034921,354.589346,505.623787,354.592000,505.200000C354.619058,504.803085,354.702912,504.412103,354.841000,504.039000C354.958543,503.658860,355.126720,503.296271,355.341000,502.961000C356.170000,501.883000,356.916000,500.971000,357.579000,500.142000C358.242000,499.396000,358.740000,498.898000,358.988000,498.650000C359.448313,498.222697,359.865027,497.750712,360.232000,497.241000C360.544264,496.807865,360.795296,496.333731,360.978000,495.832000C361.133984,495.378196,361.218000,494.902779,361.227000,494.423000C361.232420,493.968890,361.147789,493.518209,360.978000,493.097000C360.825122,492.725840,360.565484,492.408428,360.232000,492.185000C359.922200,491.952356,359.541006,491.834957,359.154000,491.853000C358.319375,491.901545,357.582561,492.414262,357.247000,493.180000C357.094086,493.496042,356.982502,493.830458,356.915000,494.175000C356.777397,494.600765,356.610326,495.016436,356.415000,495.419000C356.221127,495.682176,355.912867,495.836492,355.586000,495.834000C355.281942,495.835361,354.999184,495.678063,354.840000,495.419000C354.619573,495.103106,354.503485,494.726171,354.508000,494.341000C354.505565,493.771584,354.618503,493.207575,354.840000,492.683000C355.014715,492.110492,355.295977,491.576129,355.669000,491.108000C356.060153,490.634509,356.538452,490.240396,357.078000,489.947000C357.719882,489.627022,358.435407,489.483779,359.151000,489.532000C359.989430,489.497785,360.820725,489.698681,361.551000,490.112000C361.993553,490.372739,362.386587,490.709577,362.712000,491.107000C363.057738,491.549569,363.311387,492.056868,363.458000,492.599000C363.627583,493.192010,363.711433,493.806235,363.707000,494.423000C363.731705,495.341286,363.532649,496.251798,363.127000,497.076000C362.815655,497.754748,362.426009,498.394760,361.966000,498.983000C361.551000,499.483000,360.888000,500.144000,359.976000,501.139000C359.293818,501.844430,358.656882,502.592253,358.069000,503.378000C358.152000,503.461000,357.986000,503.710000,357.820000,504.041000Z"
            transform="matrix(1 0 0 1 -277.23300000000000 -425.04873546609650)" fill="rgb(223,0,31)"
            stroke="none" stroke-width="1" />
    </g>
</svg>