<svg xmlns="http://www.w3.org/2000/svg" xmlns:xlink="http://www.w3.org/1999/xlink" id="eiw2os1gt30a1"
            viewBox="0 0 200 200" shape-rendering="geometricPrecision" text-rendering="geometricPrecision">
    <g id="eiw2os1gt30a2" transform="matrix(1 0 0 1 0.16300000000000 0.36700000000000)">
        <rect id="eiw2os1gt30a3" width="200" height="200" rx="0" ry="0"
            transform="matrix(1 0 0 1 -0.16300000000000 -0.36700000000000)" fill="rgba(255,255,255,0)"
            stroke="none" stroke-width="1" />
        <path id="eiw2os1gt30a4"
            d="M-6.941025,0C-6.941025,-3.833422,-3.833422,-6.941025,0,-6.941025C3.833422,-6.941025,6.941025,-3.833422,6.941025,0C6.941025,3.833422,3.833422,6.941025,0,6.941025C-3.833422,6.941025,-6.941025,3.833422,-6.941025,0Z"
            transform="matrix(1 0 0 1 156.80650717129100 119.90629332459024)" fill="rgb(223,0,31)" stroke="none"
            stroke-width="1" />
        <circle id="eiw2os1gt30a5" r="50.492643"
            transform="matrix(1 0 0 1 99.99999999999994 100.00000000500017)" fill="rgb(255,255,255)"
            stroke="none" stroke-width="1" />
        <path id="eiw2os1gt30a6"
            d="M1.176000,51.800000C0.233000,25.100000,23.720000,-0.995000,55.793000,1.185000C79.007000,2.758000,104.380000,23.255000,102.556000,55.406000C101.228000,78.913000,80.434000,104.376000,48.125000,102.456000C23.993000,101.020000,0.506000,80.027000,1.176000,51.800000ZM95.609000,38.748000C92.594000,41.559000,90.137000,44.173000,87.346000,46.377000C85.419929,47.837410,84.624405,50.353833,85.361000,52.656000C86.163100,56.326746,85.579699,60.164441,83.723000,63.431000C81.812000,67.146000,79.504000,70.664000,77.767000,74.454000C75.856000,78.603000,73.226000,81.922000,68.635000,82.777000C63.250000,83.793000,59.540000,84.189000,58.411000,77.077000C57.555000,71.690000,57.133000,66.228000,56.351000,60.828000C55.883085,56.900888,55.161916,53.008112,54.192000,49.174000C53.472000,46.598000,52.120000,43.836000,48.992000,43.390000C46.484120,43.051554,43.941586,43.059966,41.436000,43.415000C38.230950,43.959088,34.990213,42.668966,33.036000,40.071000C29.700425,35.610641,28.628682,29.852796,30.136000,24.491000C31.302000,19.983000,33.350000,15.760000,37.336000,13.010000C40.736000,10.657000,44.396000,8.675000,47.287000,6.929000C31.388000,7.353000,9.824000,21.744000,6.970000,46.117000C8.732000,46.517000,10.543000,46.773000,12.256000,47.331000C17.939000,49.214000,20.147000,51.938000,16.156000,57.883000C15.523000,58.812000,14.593000,59.976000,14.717000,60.905000C15.288000,65.054000,14.022000,68.720000,12.409000,72.386000C12.150450,73.032344,12.182138,73.758631,12.496000,74.380000C15.800000,79.606000,19.600000,84.461000,24.700000,88.090000C35.271000,95.632000,46.959000,98.741000,59.875000,96.326000C71.522352,94.283534,81.886550,87.710853,88.700000,78.046000C94.162874,70.494657,97.165821,61.443215,97.300000,52.124000C97.449000,47.740000,96.233000,43.318000,95.613000,38.748000ZM88.375000,37.906000C88.055359,37.637842,87.710402,37.401396,87.345000,37.200000C84.367000,36.110000,81.303000,35.057000,79.826000,31.936000C78.312000,28.753000,76.985000,25.483000,75.657000,22.214000C74.081000,18.350000,73.076000,16.059000,67.667000,16.430000C63.750568,16.710156,59.837918,15.836120,56.413000,13.916000C53.313000,12.244000,50.013000,11.736000,46.698000,13.416000C45.519000,14.010000,44.415000,14.741000,43.261000,15.385000C37.045000,18.816000,33.174000,27.609000,36.127000,34.359000C37.504000,37.517000,39.127000,38.198000,42.492000,37.827000C51.376000,36.836000,57.430000,38.483000,59.838000,48.738000C61.338000,55.138000,61.612000,61.829000,62.518000,68.380000Q63.095000,72.523000,64.069000,76.616000C64.428517,77.228456,65.071774,77.619220,65.781000,77.656000C69.230000,77.456000,71.240000,75.290000,72.681000,72.368000C73.983286,69.360229,75.500893,66.450341,77.222000,63.661000C79.735675,60.340828,80.690311,56.095650,79.840000,52.019000C79.021000,47.819000,80.634000,44.229000,84.307000,41.653000C85.741881,40.489575,87.101293,39.236044,88.377000,37.900000ZM79.218000,15.906000C80.318000,19.039000,81.402000,21.776000,82.245000,24.575000C83.895000,30.062000,88.151000,32.175000,93.337000,33.455000C89.900000,26.574000,85.658000,20.543000,79.218000,15.911000ZM6.238000,51.592000C7,56.545000,6.660000,61.115000,9.055000,65.178000C9.155000,60.978000,8.782000,56.719000,12.678000,53.264000C10.271000,52.645000,8.435000,52.174000,6.239000,51.592000ZM53.920000,6.994000C59.230000,8.467000,63.957000,12.700000,70.400000,10.437000C64.938000,8.566000,59.776000,6.411000,53.920000,6.994000Z"
            transform="matrix(1 0 0 1 47.93826509499998 47.82521059999996)" fill="rgb(223,0,31)" stroke="none"
            stroke-width="1" />
        <path id="eiw2os1gt30a7"
            d="M-6.941025,0C-6.941025,-3.833422,-3.833422,-6.941025,0,-6.941025C3.833422,-6.941025,6.941025,-3.833422,6.941025,0C6.941025,3.833422,3.833422,6.941025,0,6.941025C-3.833422,6.941025,-6.941025,3.833422,-6.941025,0Z"
            transform="matrix(1 0 0 1 157.01541123916314 119.92743443259504)" fill="rgb(223,0,31)" stroke="none"
            stroke-width="1" fill-opacity="0" />
    </g>
</svg>