<svg xmlns="http://www.w3.org/2000/svg" xmlns:xlink="http://www.w3.org/1999/xlink" id="evckkcist521"
    viewBox="0 0 200 200" shape-rendering="geometricPrecision" text-rendering="geometricPrecision">
    <g id="evckkcist522" transform="matrix(1 0 0 1 40.16299999999997 40.18400000000003)">
        <rect id="evckkcist523" width="119.814683" height="133.013966" rx="0" ry="0"
            transform="matrix(1.66924449846164 0 0 1.50360150570211 -40.16299999769848 -40.18400000212643)"
            fill="rgba(255,255,255,0)" stroke="none" stroke-width="1" />
        <g id="evckkcist524" transform="matrix(1 0 0 1 -4 -6.04800000000000)">
            <g id="evckkcist525" transform="matrix(1 0 0 1 13.83700000000000 14.81600000000000)">
                <g id="evckkcist526">
                    <path id="evckkcist527"
                        d="M39.563000,92.243000L39.563000,92.243000L34.355000,92.126000C27.030000,91.382000,21.136000,88.636000,17.874000,84.287000C15.012000,80.624000,14.097000,75.880000,15.074000,70.323000C18.450000,51.669000,26.690000,30.323000,39.109000,31.353000C44.545000,31.811000,48.666000,37.533000,51.127000,42.398000C53.959000,46.589000,58.687000,55.916000,61.096000,61.458000C68.281000,77.993000,60.069000,83.785000,60.069000,83.785000C56.516000,87.163000,45.973000,92.015000,39.563000,92.243000Z"
                        transform="matrix(1 0 0 1 -12.69400000000000 -11.13400000000000)"
                        fill="rgb(255,255,255)" stroke="rgb(223,0,31)" stroke-width="4"
                        stroke-miterlimit="10" />
                    <path id="evckkcist528"
                        d="M36.465000,59.342000C35.815220,59.342000,35.192053,59.600124,34.732588,60.059588C34.273124,60.519053,34.015000,61.142220,34.015000,61.792000L34.015000,70.124000L27.753000,66.800000C26.977376,66.386644,26.040148,66.418477,25.294359,66.883509C24.548570,67.348540,24.107524,68.176121,24.137359,69.054509C24.167194,69.932896,24.663376,70.728644,25.439000,71.142000L25.464000,71.155000L33.959000,75.675000L33.959000,96L33.959000,96L33.959000,108.610000C33.953465,109.972102,35.052900,111.080938,36.415000,111.087000L36.435000,111.087000C37.805633,111.047279,38.899675,109.931153,38.912000,108.560000L38.912000,61.792000C38.912001,60.440073,37.816926,59.343655,36.465000,59.342000Z"
                        transform="matrix(1 0 0 1 -10.69400000000000 -8.97600000000000)" fill="rgb(223,0,31)"
                        stroke="none" stroke-width="1" />
                </g>
                <g id="evckkcist529">
                    <path id="evckkcist5210"
                        d="M83.112000,93.292000L83.112000,93.292000L77.900000,93.124000C70.455000,92.550000,64.155000,90.374000,59.457000,86.938000L59.400000,86.882000C59.343000,86.882000,59.343000,86.824000,59.285000,86.824000C57.608037,85.602712,56.105810,84.158017,54.820000,82.530000C51.040000,77.546000,49.780000,71.130000,51.097000,63.630000C55.449000,39.574000,66.102000,12.030000,82.139000,12.030000L83.284000,12.030000C92.960000,12.830000,101.669000,26.062000,106.995000,47.540000C101.784000,51.149000,99.034000,55.386000,99.034000,60.025000C99.034000,65.351000,102.926000,72.110000,109.458000,77.839000C106.079000,88.312000,94.628000,93.009000,83.112000,93.292000Z"
                        transform="matrix(1 0 0 1 -11.98200000000000 -12.02400000000000)"
                        fill="rgb(255,255,255)" stroke="rgb(223,0,31)" stroke-width="4"
                        stroke-miterlimit="10" />
                    <path id="evckkcist5211"
                        d="M94.909000,41.470000C93.872029,40.499509,92.244706,40.553231,91.274000,41.590000C91.241000,41.626000,91.207000,41.664000,91.174000,41.702000L81.248000,52.933000L81.248000,34.727000C81.285043,33.791883,80.807280,32.911501,80.003056,32.432921C79.198832,31.954340,78.197168,31.954340,77.392944,32.432921C76.588720,32.911501,76.110957,33.791883,76.148000,34.727000L76.148000,72.276000L67.291000,61.669000C66.389387,60.590481,64.790650,60.431412,63.694199,61.311132C62.597749,62.190852,62.406530,63.786063,63.264000,64.900000L74.892000,78.856000C75.185944,79.250141,75.607029,79.530629,76.084000,79.650000L76.084000,111.800000L76.084000,111.800000C76.084000,113.224895,77.239105,114.380000,78.664000,114.380000C80.088895,114.380000,81.244000,113.224895,81.244000,111.800000L81.244000,111.800000L81.244000,60.364000C81.571193,60.222550,81.862128,60.008878,82.095000,59.739000L95.029000,45.100000C95.996696,44.063879,95.943012,42.439949,94.909000,41.470000Z"
                        transform="matrix(1 0 0 1 -11.40400000000000 -9.26200000000000)" fill="rgb(223,0,31)"
                        stroke="none" stroke-width="1" />
                </g>
            </g>
        </g>
    </g>
</svg>