<svg xmlns="http://www.w3.org/2000/svg" width="325.665" height="39.993" viewBox="0 0 325.665 39.993">
  <g id="组_7286" data-name="组 7286" transform="translate(-443.389 -358.945)">
    <g id="组_7283" data-name="组 7283" transform="translate(443.389 358.945)">
      <g id="组_7281" data-name="组 7281" transform="translate(0 0.002)">
        <path id="路径_5910" data-name="路径 5910" d="M487.965,358.945l-3.523,25.095c-.069.465-.7.646-.9.25L471.894,361.1a3.984,3.984,0,0,0-3.651-2.158H452.711a5.589,5.589,0,0,0-5.358,4.7l-3.964,28.2h11.75l3.528-25.095c.064-.465.7-.646.9-.25l11.647,23.186a4,4,0,0,0,3.656,2.158h15.527a5.594,5.594,0,0,0,5.364-4.7l3.964-28.2Z" transform="translate(-443.389 -358.945)" fill="#fff"/>
      </g>
      <path id="路径_5911" data-name="路径 5911" d="M459.4,365.883l2.207,8.275a1.6,1.6,0,0,0,1.551,1.194h13.805a1.61,1.61,0,0,0,1.551-2.021l-2.207-8.28a1.608,1.608,0,0,0-1.552-1.189h-13.8A1.606,1.606,0,0,0,459.4,365.883Z" transform="translate(-381.26 -339.798)" fill="#fff"/>
      <path id="路径_5912" data-name="路径 5912" d="M506.257,358.95H468.243a11.2,11.2,0,0,0-10.717,9.4l-1.977,14.1a7.973,7.973,0,0,0,8.084,9.4h38.019a11.234,11.234,0,0,0,10.717-9.4l1.977-14.1A8,8,0,0,0,506.257,358.95Zm-5.505,22.32-.054.367-.323,2.124a3.61,3.61,0,0,1-1.233,2.06,3.721,3.721,0,0,1-2.422.9h-26.6a3.193,3.193,0,0,1-2.271-1.037,2.865,2.865,0,0,1-.7-2.457l2.471-16.35a3.624,3.624,0,0,1,1.253-2.119,3.706,3.706,0,0,1,2.393-.9h26.123l.293.015a3.216,3.216,0,0,1,2.467,1.052,2.845,2.845,0,0,1,.7,2.476l-.069.479-2.026,13.389Z" transform="translate(-396.424 -358.924)" fill="#fff"/>
      <g id="组_7282" data-name="组 7282" transform="translate(120.801)">
        <path id="路径_5913" data-name="路径 5913" d="M480.562,366.125l1.005-7.181H469.816l-1.005,7.181Z" transform="translate(-465.209 -358.945)" fill="#fff"/>
        <path id="路径_5914" data-name="路径 5914" d="M471.216,361.083l-3.142,22.439h11.752l3.142-22.439Z" transform="translate(-468.074 -350.617)" fill="#fff"/>
      </g>
    </g>
    <g id="组_7285" data-name="组 7285" transform="translate(587.096 358.969)">
      <g id="组_7284" data-name="组 7284">
        <path id="路径_5915" data-name="路径 5915" d="M483.178,367.881A2.237,2.237,0,0,1,485.322,366h33.385l.993-7.052H486.315a10.629,10.629,0,0,0-10.188,8.931l-.3,2.119a7.966,7.966,0,0,0,1.312,5.779l.034.049c.078.108.162.21.245.313l.044.054c.083.1.171.206.259.3l.039.039a7.289,7.289,0,0,0,1.028.91l.059.044c.1.073.205.142.313.21l.093.059.293.176.113.059c.1.054.206.108.313.156l.1.049c.132.059.264.117.4.171l.02.01c.147.054.293.108.445.157l.093.029c.117.034.235.068.357.1l.152.039c.1.024.206.044.313.068l.171.029c.1.02.206.034.313.049l.176.02c.108.015.22.024.338.034l.152.01c.167.01.333.015.5.015h24.449a1.676,1.676,0,0,1,.949.284,1.517,1.517,0,0,1,.44.46,1.653,1.653,0,0,1,.245.944c0,.064-.01.127-.015.191l-.3,2.119a2.237,2.237,0,0,1-2.144,1.879H473.749l-.994,7.052h33.385a9.76,9.76,0,0,0,4.409-1.077,11.138,11.138,0,0,0,1.561-.959c.308-.23.607-.48.891-.739.166-.157.333-.308.489-.475h0c.108-.108.21-.22.313-.338.206-.23.4-.465.582-.714a9.684,9.684,0,0,0,.612-.92c.093-.147.176-.3.254-.45.073-.132.142-.269.206-.406a9.745,9.745,0,0,0,.871-2.853l.3-2.119c.029-.225.054-.455.068-.675l0-.127c.015-.22.015-.435.01-.646l0-.108c0-.215-.02-.431-.044-.641v-.01c-.025-.22-.059-.431-.1-.641l-.015-.093c-.044-.206-.1-.411-.157-.612l-.015-.049a7.289,7.289,0,0,0-.475-1.2l-.024-.049c-.093-.191-.2-.377-.308-.553h0a7.609,7.609,0,0,0-6.616-3.528H484.5A1.6,1.6,0,0,1,482.88,370Z" transform="translate(-472.755 -358.948)" fill="#0e79af"/>
        <path id="路径_5916" data-name="路径 5916" d="M521.642,360.391H501.9a10.63,10.63,0,0,0-10.194,8.931l-.063.475h0l-1.057,7.522a7.874,7.874,0,0,0,1.728,6.318c.176.2.357.392.553.578a7.837,7.837,0,0,0,.616.514c.108.078.216.156.328.23a6.335,6.335,0,0,0,.7.411c.122.064.245.122.367.181a8.256,8.256,0,0,0,3.382.7h19.746a9.683,9.683,0,0,0,3.577-.7,10.707,10.707,0,0,0,6.611-8.231l.778-5.535.284-1.987h0l.064-.475A7.582,7.582,0,0,0,521.642,360.391ZM520.1,378.879a2.8,2.8,0,0,1-.343.171,2.018,2.018,0,0,1-.372.108,1.986,1.986,0,0,1-.382.039H499.249a1.632,1.632,0,0,1-1.253-.548,1.683,1.683,0,0,1-.362-1.331l.519-3.685.538-3.837h0l.069-.475a2.233,2.233,0,0,1,2.143-1.879h19.746a1.6,1.6,0,0,1,1.62,1.879l-1.125,8a2.169,2.169,0,0,1-.47,1.052A2.3,2.3,0,0,1,520.1,378.879Z" transform="translate(-403.69 -353.338)" fill="#0e79af"/>
        <path id="路径_5917" data-name="路径 5917" d="M500.906,369.322l-.069.475h0l-2.315,16.453h7.057l2.31-16.453h0l.069-.475a2.237,2.237,0,0,1,2.143-1.879h21.63l.988-7.052H511.095A10.625,10.625,0,0,0,500.906,369.322Z" transform="translate(-372.423 -353.338)" fill="#0e79af"/>
        <path id="路径_5918" data-name="路径 5918" d="M518.638,366l.991-7.053h-7.053L511.585,366h-4.7l-.991,7.053h4.7l-.33,2.351h0l-2.313,16.457H515l2.313-16.457h0l.331-2.351H524.7l.991-7.053Z" transform="translate(-343.733 -358.95)" fill="#0e79af"/>
        <path id="路径_5919" data-name="路径 5919" d="M515.089,360.391H495.339a10.629,10.629,0,0,0-10.189,8.931l-.063.475h0l-2.8,19.893-.5,3.616h7.052l.989-7.057h21.63a10.115,10.115,0,0,0,5.97-2.036c.245-.186.485-.377.715-.578a11.1,11.1,0,0,0,1.83-2.06q.206-.308.4-.631l.206-.367c.1-.2.206-.4.3-.6.064-.142.123-.284.181-.426.113-.284.21-.578.3-.871.044-.147.083-.3.122-.45.069-.3.127-.6.171-.91l.489-3.46.568-4.062h0l.068-.475A7.582,7.582,0,0,0,515.089,360.391ZM490.817,379.2l1.321-9.4h0l.064-.475a2.242,2.242,0,0,1,2.148-1.879H514.1a1.6,1.6,0,0,1,1.62,1.879l-.127.881-1,7.115a2.1,2.1,0,0,1-.352.9,2.37,2.37,0,0,1-.695.666,3.2,3.2,0,0,1-.343.171c-.064.025-.122.044-.186.064a2,2,0,0,1-.568.083Z" transform="translate(-437.603 -353.338)" fill="#0e79af"/>
      </g>
    </g>
  </g>
</svg>
