<svg xmlns="http://www.w3.org/2000/svg" width="645.958" height="71" viewBox="0 0 645.958 71">
  <g id="组_7652" data-name="组 7652" transform="translate(-216.687 -3939)">
    <g id="组_833" data-name="组 833" transform="translate(466.927 3946)">
      <path id="路径_1350" data-name="路径 1350" d="M3207.779,269.342a3.866,3.866,0,0,0-3.637-4.445h-180.6a11.905,11.905,0,0,0-11.961,10.185l-5.252,37.137a7.773,7.773,0,0,0,7.7,8.866h87.756a12.593,12.593,0,0,0,12.469-10.841l2.277-16.06a5.045,5.045,0,0,0-4.99-5.748h-57.574a2.06,2.06,0,0,0-2.037,1.765l-.553,3.933a2.4,2.4,0,0,0,2.377,2.74h31.332a5.479,5.479,0,0,1,5.42,6.253l-.639,4.513a5.823,5.823,0,0,1-5.766,5H3041.25a4.808,4.808,0,0,1-4.764-5.479l4.109-29.035a5.566,5.566,0,0,1,5.512-4.79h87.662a3.752,3.752,0,0,1,3.713,4.278l-5.545,39.2a3.756,3.756,0,0,0,3.721,4.278h19.717a3.752,3.752,0,0,0,3.713-3.227l5.844-41.3a3.746,3.746,0,0,1,3.713-3.227h37.479a1.25,1.25,0,0,0,1.246-1.084Z" transform="translate(-3006.253 -264.896)" fill="#d01123"/>
    </g>
    <g id="组_7651" data-name="组 7651" transform="translate(-768 10720)">
      <g id="组_832" data-name="组 832" transform="translate(984.687 -6773.997)">
        <path id="路径_1347" data-name="路径 1347" d="M3053.394,264.9l-6.061,43.095c-.109.8-1.2,1.109-1.537.429l-20-39.818a6.841,6.841,0,0,0-6.27-3.706h-26.672a9.614,9.614,0,0,0-9.213,8.068l-6.807,48.432h20.186l6.061-43.095c.109-.8,1.2-1.109,1.537-.429l20,39.818a6.841,6.841,0,0,0,6.27,3.706h26.672a9.6,9.6,0,0,0,9.2-8.068l6.809-48.432Z" transform="translate(-2976.833 -264.896)"/>
      </g>
      <path id="路径_1348" data-name="路径 1348" d="M2992.887,273.284l3.791,14.211a2.75,2.75,0,0,0,2.664,2.051h23.7a2.768,2.768,0,0,0,2.674-3.471l-3.791-14.219a2.774,2.774,0,0,0-2.674-2.042h-23.7A2.754,2.754,0,0,0,2992.887,273.284Z" transform="translate(-1873.998 -7002.488)"/>
      <path id="路径_1349" data-name="路径 1349" d="M3076.148,264.9h-65.281c-8.967,0-17.119,7.269-18.4,16.144l-3.4,24.22c-1.293,8.875,4.926,16.144,13.885,16.144h65.289c8.875,0,17.111-7.269,18.406-16.144l3.383-24.22A13.721,13.721,0,0,0,3076.148,264.9Zm-9.455,38.33-.09.63-.557,3.656a6.2,6.2,0,0,1-2.117,3.53,6.4,6.4,0,0,1-4.17,1.546h-45.674a5.472,5.472,0,0,1-3.9-1.781,4.891,4.891,0,0,1-1.211-4.219l4.244-28.078a6.243,6.243,0,0,1,2.152-3.639,6.308,6.308,0,0,1,4.109-1.538h44.861l.5.017a5.526,5.526,0,0,1,4.236,1.807,4.947,4.947,0,0,1,1.209,4.252l-.117.824-3.48,22.993Z" transform="translate(-1902.836 -7038.856)"/>
      <g id="组_834" data-name="组 834" transform="translate(1192.146 -6774)">
        <path id="路径_1352" data-name="路径 1352" d="M3022.437,277.227l1.727-12.331h-20.178l-1.73,12.331Z" transform="translate(-2996.072 -264.896)"/>
        <path id="路径_1353" data-name="路径 1353" d="M3006.912,267.034l-5.393,38.534h20.18l5.4-38.534Z" transform="translate(-3001.52 -249.061)"/>
      </g>
    </g>
    <path id="路径_16334" data-name="路径 16334" d="M3144.5,272.194l.389-2.756a3.986,3.986,0,0,0-3.941-4.538H3048.22a11.956,11.956,0,0,0-11.832,10.278l-1.8,12.791a7.966,7.966,0,0,0,7.891,9.076h65.961a5.31,5.31,0,0,1,5.262,6.059l-.646,4.6a5.755,5.755,0,0,1-5.7,4.95h-74.721a1.772,1.772,0,0,0-1.756,1.521l-.262,1.866a4.428,4.428,0,0,0,4.379,5.051h91.828a12.394,12.394,0,0,0,12.271-10.656l2.3-16.27a4.874,4.874,0,0,0-4.824-5.555h-67.029a4.865,4.865,0,0,1-4.826-5.547l.664-4.723a5.827,5.827,0,0,1,5.766-5h72.037A1.331,1.331,0,0,0,3144.5,272.194Z" transform="translate(-2282.287 3681.101)" fill="#d01123"/>
    <path id="路径_16335" data-name="路径 16335" d="M31-7H41L-9,64H-19Z" transform="translate(697 3946)"/>
  </g>
</svg>
